<svg width="30" height="32" viewBox="0 0 30 32" fill="none" xmlns="http://www.w3.org/2000/svg">
<g clip-path="url(#clip0_659_153)">
<path d="M21.7208 0H8.27869C3.71382 0 0 3.9616 0 8.83079V23.169C0 28.0384 3.71382 31.9998 8.27869 31.9998H21.7208C26.286 31.9998 29.9998 28.0382 29.9998 23.169V8.83079C30 3.9616 26.286 0 21.7208 0ZM27.3383 23.169C27.3383 26.4729 24.8183 29.1606 21.721 29.1606H8.27869C5.1815 29.1608 2.66173 26.4729 2.66173 23.169V8.83079C2.66173 5.52712 5.1815 2.83918 8.27869 2.83918H21.7208C24.8181 2.83918 27.3381 5.52712 27.3381 8.83079V23.169H27.3383Z" fill="white"/>
<path d="M15 7.75476C10.7375 7.75476 7.26978 11.4536 7.26978 16.0003C7.26978 20.5468 10.7375 24.2455 15 24.2455C19.2625 24.2455 22.7302 20.5468 22.7302 16.0003C22.7302 11.4536 19.2625 7.75476 15 7.75476ZM15 21.4061C12.2053 21.4061 9.9315 18.9811 9.9315 16.0001C9.9315 13.019 12.2052 10.5938 15 10.5938C17.7948 10.5938 20.0684 13.019 20.0684 16.0001C20.0684 18.9811 17.7946 21.4061 15 21.4061Z" fill="white"/>
<path d="M23.0545 5.34729C22.5416 5.34729 22.0379 5.56875 21.6757 5.95677C21.3118 6.3429 21.1025 6.88045 21.1025 7.42935C21.1025 7.97656 21.3119 8.51392 21.6757 8.90194C22.0377 9.28807 22.5416 9.51142 23.0545 9.51142C23.5691 9.51142 24.0712 9.28807 24.435 8.90194C24.7988 8.51392 25.0064 7.97637 25.0064 7.42935C25.0064 6.88045 24.7988 6.3429 24.435 5.95677C24.073 5.56875 23.5691 5.34729 23.0545 5.34729Z" fill="white"/>
</g>
<defs>
<clipPath id="clip0_659_153">
<rect width="30" height="32" fill="white"/>
</clipPath>
</defs>
</svg>
